<svg xmlns="http://www.w3.org/2000/svg" width="39" height="40" viewBox="0 0 39 40" version="1.1"><title>Fill 835</title><desc>Created with Sketch.</desc><g stroke="none" stroke-width="1" fill="none" fill-rule="evenodd"><g transform="translate(-909.000000, -451.000000)" fill="#000000"><g transform="translate(372.000000, 451.000000)"><g transform="translate(534.000000, 0.000000)"><g transform="translate(3.000000, 0.000000)"><path d="M33.2 20.9C32.8 20.4 32.3 20 31.7 19.6L35.3 16.1C36.1 17.1 36.6 17.8 36.9 18.3L33.2 20.9 33.2 20.9ZM32.1 23.2C32 23.5 31.8 23.8 31.5 24 31.1 24.3 30.7 24.6 30.1 24.9 29 25.4 27.6 25.9 25.8 26.2 25.5 26.2 25.2 26.3 24.9 26.3 24.1 26.4 23.3 26.5 22.3 26.5 21.9 26.5 21.4 26.6 21 26.6 17.1 26.6 13.8 25.8 11.8 24.9 11.2 24.6 10.8 24.3 10.5 24 10.1 23.8 9.9 23.5 9.8 23.2 9.7 23.1 9.7 22.9 9.7 22.8 9.7 21 14.5 19 21 19 24.1 19 26.8 19.4 28.8 20.1 29.5 20.3 30 20.6 30.5 20.8 31.1 21.2 31.5 21.5 31.8 21.9 32.1 22.2 32.2 22.5 32.2 22.8 32.2 22.9 32.2 23.1 32.1 23.2L32.1 23.2ZM32.2 28.7C32.2 28.7 32.2 28.8 32.2 28.9 32.1 29.1 32 29.4 31.7 29.7 31.5 29.9 31.1 30.2 30.6 30.5 28.7 31.6 25.2 32.4 21 32.4 20.6 32.4 20.2 32.4 19.8 32.4 18.7 32.4 17.6 32.3 16.6 32.1 14.4 31.8 12.5 31.2 11.3 30.5 10.8 30.2 10.4 29.9 10.2 29.7 9.9 29.4 9.8 29.1 9.7 28.9 9.7 28.8 9.7 28.7 9.7 28.7L9.7 25.5C12 27.2 16.4 28.1 20.7 28.2 20.8 28.2 20.9 28.2 21 28.2 22.8 28.2 24.7 28 26.5 27.7 28.8 27.2 30.9 26.5 32.2 25.5L32.2 28.7 32.2 28.7ZM32.2 34.3C32.2 36.1 27.4 38.1 21 38.1 18 38.1 15.4 37.7 13.4 37 13.4 37 13.3 37 13.3 37 11 36.2 9.7 35.2 9.7 34.3L9.7 31.4C9.9 31.6 10.1 31.7 10.3 31.8 11.6 32.6 13.3 33.2 15.2 33.5 16 33.7 16.9 33.8 17.7 33.9 18.8 34 19.9 34.1 21 34.1 25.3 34.1 29.9 33.2 32.2 31.4L32.2 34.3 32.2 34.3ZM8 22.8L8 29.6 2 23.7 24.1 2 35.7 13.4 30.1 18.9C27.6 17.9 24.2 17.3 21 17.3 14.7 17.3 8 19.2 8 22.8L8 22.8ZM38.9 18.6C38.9 18.3 38.9 18.1 38.7 17.9 38.7 17.9 37.2 15.9 36.5 14.9L37.4 14C37.8 13.7 37.8 13.1 37.4 12.8L24.6 0.2C24.3-0.1 23.8-0.1 23.5 0.2L0.2 23.1C-0.1 23.4-0.1 23.9 0.2 24.2L8 31.9 8 34.3C8 37.8 14.7 39.7 21 39.7 27.2 39.7 33.9 37.8 33.9 34.3L33.9 22.8C33.9 22.7 33.9 22.5 33.9 22.4L38.5 19.1C38.7 19 38.8 18.8 38.9 18.6L38.9 18.6Z"/></g></g></g></g></g></svg>