<svg xmlns="http://www.w3.org/2000/svg" width="37" height="41" viewBox="0 0 37 41" version="1.1"><title>Group</title><desc>Created with Sketch.</desc><g stroke="none" stroke-width="1" fill="none" fill-rule="evenodd"><g transform="translate(-384.000000, -451.000000)" fill="#1E2B3A"><g transform="translate(372.000000, 451.000000)"><g transform="translate(12.000000, 0.000000)"><path d="M10 8.2L12.8 8.2 12.8 10.8 10 10.8 10 8.2ZM9.2 12.4L13.7 12.4C14.1 12.4 14.5 12 14.5 11.6L14.5 7.3C14.5 6.9 14.1 6.5 13.7 6.5L9.2 6.5C8.7 6.5 8.4 6.9 8.4 7.3L8.4 11.6C8.4 12 8.7 12.4 9.2 12.4L9.2 12.4ZM10 15.5L12.8 15.5 12.8 18.1 10 18.1 10 15.5ZM9.2 19.7L13.7 19.7C14.1 19.7 14.5 19.4 14.5 18.9L14.5 14.7C14.5 14.2 14.1 13.9 13.7 13.9L9.2 13.9C8.7 13.9 8.4 14.2 8.4 14.7L8.4 18.9C8.4 19.4 8.7 19.7 9.2 19.7L9.2 19.7ZM10 23.7L12.8 23.7 12.8 26.3 10 26.3 10 23.7ZM9.2 27.9L13.7 27.9C14.1 27.9 14.5 27.5 14.5 27.1L14.5 22.9C14.5 22.4 14.1 22 13.7 22L9.2 22C8.7 22 8.4 22.4 8.4 22.9L8.4 27.1C8.4 27.5 8.7 27.9 9.2 27.9L9.2 27.9ZM34.7 38.4L30 38.4 30 34.3C30 33.8 29.6 33.5 29.1 33.5L29 33.5C28.6 33.5 28.2 33.8 28.2 34.3L28.2 38.4 23.5 38.4 23.5 15.5 34.7 17.9 34.7 38.4 34.7 38.4ZM10.3 31.7L13.1 31.7 13.1 38.4 10.3 38.4 10.3 31.7ZM1.7 5L21.8 2 21.8 38.4 14.8 38.4 14.8 30.9C14.8 30.4 14.4 30 14 30L9.5 30C9 30 8.7 30.4 8.7 30.9L8.7 38.4 1.7 38.4 1.7 5 1.7 5ZM35.7 16.5L23.5 13.8 23.5 1C23.5 1 23.4 1 23.4 0.9 23.5 0.9 23.5 0.8 23.5 0.7 23.4 0.2 23-0.1 22.5 0L0.7 3.3C0.3 3.4-0.1 3.8 0 4.2 0 4.3 0 4.3 0 4.3 0 4.3 0 4.3 0 4.3L0 39.3C0 39.7 0.4 40.1 0.8 40.1L35.5 40.1C36 40.1 36.4 39.7 36.4 39.3L36.4 17.3C36.4 16.9 36.1 16.6 35.7 16.5L35.7 16.5ZM28.5 25.4L28.6 25.4C29.1 25.4 29.4 25 29.4 24.5L29.4 22C29.4 21.6 29.1 21.2 28.6 21.2L28.5 21.2C28 21.2 27.6 21.6 27.6 22L27.6 24.5C27.6 25 28 25.4 28.5 25.4M28.5 31.1L28.6 31.1C29.1 31.1 29.4 30.7 29.4 30.3L29.4 27.8C29.4 27.3 29.1 26.9 28.6 26.9L28.5 26.9C28 26.9 27.6 27.3 27.6 27.8L27.6 30.3C27.6 30.7 28 31.1 28.5 31.1"/></g></g></g></g></svg>