<?xml version="1.0" encoding="UTF-8" standalone="no"?>
<svg width="31px" height="31px" viewBox="0 0 31 31" version="1.1" xmlns="http://www.w3.org/2000/svg" xmlns:xlink="http://www.w3.org/1999/xlink" xmlns:sketch="http://www.bohemiancoding.com/sketch/ns">
    <!-- Generator: Sketch 3.1.1 (8761) - http://www.bohemiancoding.com/sketch -->
    <title>Fill 180 + Fill 181</title>
    <desc>Created with Sketch.</desc>
    <defs></defs>
    <g id="Page-1" stroke="none" stroke-width="1" fill="none" fill-rule="evenodd" sketch:type="MSPage">
        <g id="Blog" sketch:type="MSArtboardGroup" transform="translate(-1040.000000, -346.000000)" fill="#FFFFFF">
            <g id="HEADER" sketch:type="MSLayerGroup">
                <g id="search" transform="translate(370.000000, 341.000000)" sketch:type="MSShapeGroup">
                    <g id="Fill-180-+-Fill-181" transform="translate(670.000000, 5.000000)">
                        <path d="M28.6830612,28.6830612 C28.3206122,29.044898 27.7316327,29.044898 27.3691837,28.6830612 L19.5655102,20.8793878 C20.037551,20.4759184 20.4765306,20.0369388 20.88,19.5655102 L28.6830612,27.3691837 C29.0455102,27.7310204 29.0455102,28.3206122 28.6830612,28.6830612 L28.6830612,28.6830612 Z M11.8665306,22.5091837 C5.99877551,22.5091837 1.2244898,17.734898 1.2244898,11.8665306 C1.2244898,5.99816327 5.99877551,1.2244898 11.8665306,1.2244898 C17.734898,1.2244898 22.5091837,5.99816327 22.5091837,11.8665306 C22.5091837,17.734898 17.734898,22.5091837 11.8665306,22.5091837 L11.8665306,22.5091837 Z M29.5487755,26.5034694 L21.6355102,18.5889796 C22.9561224,16.6763265 23.7336735,14.3620408 23.7336735,11.8665306 C23.7336735,5.32346939 18.4102041,0 11.8665306,0 C5.32346939,0 0,5.32346939 0,11.8665306 C0,18.4102041 5.32346939,23.7336735 11.8665306,23.7336735 C14.3620408,23.7336735 16.6769388,22.9555102 18.5895918,21.634898 L26.5034694,29.5493878 C26.9228571,29.9687755 27.475102,30.1787755 28.0261224,30.1787755 C28.5771429,30.1787755 29.1293878,29.9687755 29.5487755,29.5487755 C30.3887755,28.7093878 30.3887755,27.3428571 29.5487755,26.5034694 L29.5487755,26.5034694 Z" id="Fill-180"></path>
                        <path d="M12.6949118,3.67803819 C10.2434832,3.60089534 7.94817707,4.50273207 6.22593217,6.22558921 C4.50246278,7.94844636 3.59817707,10.2462015 3.67838115,12.6951811 C3.68940156,13.0264055 3.96062605,13.2872219 4.28940156,13.2872219 C4.29674849,13.2872219 4.30348319,13.2872219 4.31083013,13.2866096 C4.64817707,13.2755892 4.91327911,12.9927321 4.90164645,12.6547729 C4.83307502,10.5480382 5.61062605,8.57232391 7.09164645,7.0913035 C8.57205462,5.61089534 10.5440954,4.82538513 12.6545036,4.90191575 C12.9857281,4.92089534 13.2753199,4.6490586 13.2863403,4.31048717 C13.2973607,3.97252799 13.0328709,3.68967085 12.6949118,3.67803819" id="Fill-181"></path>
                    </g>
                </g>
            </g>
        </g>
    </g>
</svg>