<svg xmlns="http://www.w3.org/2000/svg" width="45" height="33" viewBox="0 0 45 33" version="1.1"><title>Fill 41 + Fill 42</title><desc>Created with Sketch.</desc><g stroke="none" stroke-width="1" fill="none" fill-rule="evenodd"><g transform="translate(-782.000000, -455.000000)" fill="#1E2B3A"><g transform="translate(372.000000, 451.000000)"><g transform="translate(410.000000, 4.000000)"><path d="M30.5 30C30.5 30.1 30.5 30.2 30.4 30.2L2 30.2C1.9 30.2 1.8 30.1 1.8 30L1.8 26.2C1.8 26.1 1.8 26 1.9 26 11.3 22.4 12.9 20.9 13.3 19.8 13.3 19.7 13.3 19.6 13.3 19.5L13.3 18C13.3 17.8 13.2 17.5 13.1 17.4 12.1 16.4 11.4 15.1 11 13.6 10.9 13.4 10.8 13.2 10.6 13.1 10.2 12.8 10 12.3 10 11.8 10 11.4 10.2 11 10.3 10.8 10.5 10.6 10.5 10.5 10.5 10.2L10.5 6.8C10.5 3.5 12.5 1.8 16.2 1.8 19.9 1.8 21.8 3.5 21.8 6.8L21.8 10.2C21.8 10.5 21.9 10.6 22 10.8 22.2 11 22.4 11.4 22.4 11.8 22.4 12.3 22.1 12.8 21.7 13.1 21.5 13.2 21.4 13.4 21.3 13.6 20.9 15.1 20.2 16.4 19.3 17.4 19.1 17.5 19 17.8 19 18L19 19.5C19 19.6 19 19.7 19 19.8 19.4 20.9 21 22.4 30.4 26 30.5 26 30.5 26.1 30.5 26.2L30.5 30 30.5 30ZM31.1 24.4C22.6 21.1 21.1 19.8 20.8 19.3L20.8 18.3C21.8 17.3 22.5 15.9 23 14.4 23.7 13.7 24.2 12.8 24.2 11.8 24.2 11.1 24 10.5 23.6 10L23.6 6.8C23.6 2.5 20.9 0 16.2 0 11.5 0 8.7 2.6 8.7 6.8L8.7 10C8.4 10.5 8.2 11.2 8.2 11.8 8.2 12.8 8.6 13.7 9.3 14.4 9.8 15.9 10.6 17.3 11.5 18.3L11.5 19.3C11.3 19.8 9.7 21.1 1.3 24.4 0.5 24.6 0 25.4 0 26.2L0 30C0 31.1 0.9 32 2 32L30.4 32C31.4 32 32.3 31.1 32.3 30L32.3 26.2C32.3 25.4 31.8 24.6 31.1 24.4L31.1 24.4ZM43 25.8C36.7 23.4 35.5 22.4 35.2 22.1L35.2 21.5C36 20.6 36.5 19.6 36.9 18.4 37.5 17.9 37.8 17.2 37.8 16.4 37.8 15.8 37.7 15.3 37.4 14.9L37.4 12.6C37.4 9.1 35.2 7.1 31.5 7.1 27.8 7.1 25.6 9.1 25.6 12.6L25.6 14.9C25.3 15.3 25.1 15.8 25.1 16.4 25.1 17.2 25.5 17.9 26.1 18.4 26.5 19.8 27.1 20.9 28 21.7 28.3 22.1 28.9 22.1 29.2 21.7 29.6 21.4 29.6 20.8 29.3 20.5 28.6 19.8 28 18.8 27.7 17.7 27.7 17.5 27.5 17.3 27.4 17.2 27.1 17 26.9 16.7 26.9 16.4 26.9 16.1 27.1 15.9 27.2 15.7 27.3 15.6 27.4 15.4 27.4 15.2L27.4 12.6C27.4 10.2 28.8 8.9 31.5 8.9 34.2 8.9 35.6 10.1 35.6 12.6L35.6 15.2C35.6 15.4 35.6 15.6 35.8 15.7 35.9 15.9 36 16.1 36 16.4 36 16.7 35.9 17 35.6 17.2 35.4 17.3 35.3 17.5 35.2 17.7 34.9 18.8 34.4 19.8 33.7 20.5 33.5 20.7 33.4 20.9 33.4 21.1L33.4 22.3C33.4 22.4 33.5 22.5 33.5 22.5 33.7 23.4 34.7 24.5 42.3 27.4L42.3 30.3 34.8 30.3C34.4 30.3 33.9 30.7 33.9 31.2 33.9 31.7 34.4 32.1 34.8 32.1L42.3 32.1C43.3 32.1 44.1 31.3 44.1 30.3L44.1 27.4C44.1 26.7 43.6 26 43 25.8"/></g></g></g></g></svg>