<svg xmlns="http://www.w3.org/2000/svg" width="33" height="40" viewBox="0 0 33 40" version="1.1"><title>Group</title><desc>Created with Sketch.</desc><g stroke="none" stroke-width="1" fill="none" fill-rule="evenodd"><g transform="translate(-651.000000, -451.000000)" fill="#1E2B3A"><g transform="translate(372.000000, 451.000000)"><g transform="translate(260.000000, 0.000000)"><g transform="translate(19.000000, 0.000000)"><path d="M12.6 14.9C12.4 15 12.2 15.3 12.2 15.6L13.5 34.2C13.5 36.3 11.8 38.1 9.6 38.1 7.4 38.1 5.7 36.3 5.7 34.2L7 15.6C7 15.3 6.8 15 6.6 14.9 5.4 14.1 1.6 11.4 1.6 8.1 1.6 6 2.4 4 3.9 2.5L3.9 6.5C3.9 6.7 4 6.8 4 7L6.4 10.6C6.5 10.8 6.8 10.9 7.1 10.9L12.1 10.9C12.4 10.9 12.7 10.8 12.8 10.6L15.2 7C15.2 6.8 15.3 6.7 15.3 6.5L15.3 2.5C16.8 4 17.6 6 17.6 8.1 17.6 11.4 13.8 14.1 12.6 14.9L12.6 14.9ZM14.9 0.1C14.7 0 14.4 0 14.1 0.1 13.9 0.2 13.7 0.5 13.7 0.8L13.7 6.3 11.7 9.3 7.5 9.3 5.5 6.3 5.5 0.8C5.5 0.5 5.3 0.2 5.1 0.1 4.8 0 4.5 0 4.3 0.1 1.6 1.9 0 4.9 0 8.1 0 11.9 3.7 14.8 5.3 16L4.1 34.2C4.1 37.2 6.6 39.7 9.6 39.7 12.6 39.7 15.1 37.2 15.1 34.1L13.9 16C15.5 14.8 19.2 11.9 19.2 8.1 19.2 4.9 17.6 1.9 14.9 0.1L14.9 0.1ZM10.1 32.8C9.4 32.8 8.8 33.4 8.8 34.1 8.8 34.8 9.4 35.4 10.1 35.4 10.8 35.4 11.4 34.8 11.4 34.1 11.4 34.1 11.4 34.1 11.4 34.1 11.4 33.4 10.8 32.8 10.1 32.8M30.5 21.1C29.8 21.7 29.3 22.6 29.3 23.6 29.3 24.5 29.8 25.5 30.5 26L30.5 35.1C30.5 36.9 29.1 38.4 27.3 38.4 25.5 38.4 24 36.9 24 35.1L24 26C24.7 25.5 25.2 24.5 25.2 23.6 25.2 22.6 24.7 21.7 24 21.1L24 18.9 30.5 18.9 30.5 21.1 30.5 21.1ZM27 1.6L27.5 1.6 27.9 2.7 27.4 4.3 27.1 4.3 26.7 2.7 27 1.6 27 1.6ZM31.7 22.2C32 22.1 32.1 21.8 32.1 21.5L32.1 18.1C32.1 17.6 31.8 17.3 31.3 17.3L28.1 17.3 28.1 5.9 28.1 5.9C28.4 5.9 28.8 5.7 28.8 5.3L29.5 2.8C29.5 2.7 29.5 2.5 29.5 2.4L28.8 0.5C28.7 0.2 28.4 0 28.1 0L26.5 0C26.1 0 25.8 0.2 25.7 0.5L25.1 2.4C25 2.5 25 2.7 25.1 2.8L25.7 5.3C25.8 5.7 26.1 5.9 26.5 5.9L26.5 5.9 26.5 17.3 23.2 17.3C22.8 17.3 22.4 17.6 22.4 18.1L22.4 21.5C22.4 21.8 22.6 22.1 22.8 22.2 23.3 22.5 23.6 23 23.6 23.6 23.6 24.1 23.3 24.7 22.8 24.9 22.6 25.1 22.4 25.3 22.4 25.6L22.4 35.1C22.4 37.8 24.6 40 27.3 40 29.9 40 32.1 37.8 32.1 35.1L32.1 25.6C32.1 25.3 32 25.1 31.7 24.9 31.2 24.7 30.9 24.1 30.9 23.6 30.9 23 31.2 22.5 31.7 22.2L31.7 22.2ZM26.4 26.4L26.4 34.3C26.4 34.7 26.8 35.1 27.2 35.1 27.6 35.1 28 34.7 28 34.3L28 26.4C28 26 27.6 25.6 27.2 25.6 26.8 25.6 26.4 26 26.4 26.4"/></g></g></g></g></g></svg>