<svg xmlns="http://www.w3.org/2000/svg" width="31" height="41" viewBox="0 0 31 41" version="1.1"><title>Fill 810 + Fill 811 + Fill 812</title><desc>Created with Sketch.</desc><g stroke="none" stroke-width="1" fill="none" fill-rule="evenodd"><g transform="translate(-1034.000000, -451.000000)" fill="#1E2B3A"><g transform="translate(372.000000, 451.000000)"><g transform="translate(658.000000, 0.000000)"><g transform="translate(4.000000, 0.000000)"><path d="M24.8 10.4L4.2 12.6 3.4 6.2 24 4 28.8 6.8 24.8 10.4 24.8 10.4ZM30.6 5.9L24.6 2.4C24.5 2.4 24.3 2.3 24.1 2.3L16.1 3.2 16.1 0.8C16.1 0.4 15.7 0 15.3 0 14.8 0 14.4 0.4 14.4 0.8L14.4 3.4 2.4 4.7C2.2 4.7 2 4.8 1.9 5 1.7 5.1 1.7 5.3 1.7 5.6L2.6 13.6C2.6 14 3 14.3 3.4 14.3 3.5 14.3 3.5 14.3 3.5 14.3L25.2 12C25.4 12 25.6 11.9 25.7 11.8L30.7 7.2C30.9 7 31 6.8 31 6.5 31 6.3 30.8 6.1 30.6 5.9L30.6 5.9ZM7 24L2.2 21.2 6.3 17.6 26.9 15.6 27.6 22 7 24 7 24ZM27.6 13.9L5.9 16C5.7 16 5.5 16.1 5.4 16.2L0.3 20.7C0.1 20.9 0 21.1 0 21.4 0 21.6 0.2 21.9 0.4 22L6.3 25.5C6.5 25.6 6.6 25.7 6.8 25.7L6.8 25.7 28.6 23.6C28.8 23.5 29 23.4 29.1 23.3 29.3 23.1 29.3 22.9 29.3 22.7L28.5 14.6C28.5 14.2 28 13.8 27.6 13.9L27.6 13.9ZM15.9 26.9C15.5 26.9 15.1 27.3 15.1 27.8L15.1 39.3C15.1 39.7 15.5 40.1 15.9 40.1 16.4 40.1 16.8 39.7 16.8 39.3L16.8 27.8C16.8 27.3 16.4 26.9 15.9 26.9"/></g></g></g></g></g></svg>