<svg xmlns="http://www.w3.org/2000/svg" width="34" height="40" viewBox="0 0 34 40" version="1.1"><title>Group</title><desc>Created with Sketch.</desc><g stroke="none" stroke-width="1" fill="none" fill-rule="evenodd"><g transform="translate(-515.000000, -451.000000)" fill="#1E2B3A"><g transform="translate(372.000000, 451.000000)"><g transform="translate(139.000000, 0.000000)"><g transform="translate(4.000000, 0.000000)"><path d="M17.9 38.1C16.7 38.1 15.7 37.2 15.7 36 15.7 34.7 16.7 33.8 17.9 33.8 19.1 33.8 20.1 34.7 20.1 36 20.1 37.2 19.1 38.1 17.9 38.1L17.9 38.1ZM10.3 19.6C10.3 17.7 11.8 16.2 13.7 16.2 15.6 16.2 17.1 17.7 17.1 19.6 17.1 21.4 15.6 22.9 13.7 22.9 11.8 22.9 10.3 21.4 10.3 19.6L10.3 19.6ZM28.9 1.6C30.1 1.6 31.1 2.6 31.1 3.8 31.1 5 30.1 6 28.9 6 27.7 6 26.7 5 26.7 3.8 26.7 2.6 27.7 1.6 28.9 1.6L28.9 1.6ZM17.9 32.1C17.9 32.1 17.8 32.1 17.8 32.1L15.7 24.1C16.4 23.8 17.1 23.3 17.6 22.7L20.2 24.2C20.3 24.2 20.5 24.3 20.6 24.3 20.9 24.3 21.2 24.1 21.3 23.9 21.6 23.5 21.4 23 21 22.8L18.4 21.3C18.6 20.8 18.7 20.2 18.7 19.6 18.7 18.4 18.4 17.4 17.7 16.6L26.9 7.1C27.5 7.4 28.2 7.7 28.9 7.7 31 7.7 32.8 5.9 32.8 3.8 32.8 1.7 31 0 28.9 0 26.8 0 25 1.7 25 3.8 25 4.6 25.3 5.4 25.7 6L16.5 15.4C15.7 14.9 14.7 14.6 13.7 14.6 13.1 14.6 12.6 14.7 12 14.8L11.6 14C11.3 13.6 10.8 13.4 10.4 13.6 10 13.8 9.9 14.3 10.1 14.7L10.6 15.6C9.4 16.5 8.6 18 8.6 19.6 8.6 20.2 8.7 20.7 8.9 21.3L7.1 22.3C6.7 22.5 6.5 23 6.7 23.4 6.9 23.7 7.2 23.8 7.5 23.8 7.6 23.8 7.7 23.8 7.9 23.7L9.7 22.7C10.6 23.8 12.1 24.6 13.7 24.6 13.8 24.6 14 24.5 14.1 24.5L16.2 32.5C14.9 33.2 14 34.5 14 36 14 38.1 15.8 39.8 17.9 39.8 20.1 39.8 21.8 38.1 21.8 36 21.8 33.8 20.1 32.1 17.9 32.1L17.9 32.1ZM31.9 28.1C31.4 28.1 31 28.3 30.7 28.5L29.4 27.9C29 27.6 28.5 27.8 28.3 28.2 28.1 28.6 28.2 29.1 28.6 29.3L29.8 30C29.8 30 29.8 30.1 29.8 30.2 29.8 31.3 30.7 32.3 31.9 32.3 33.1 32.3 34 31.3 34 30.2 34 29 33.1 28.1 31.9 28.1M6.9 5.4L6.2 4.2C6.5 3.8 6.7 3.4 6.7 2.9 6.7 1.7 5.7 0.8 4.6 0.8 3.4 0.8 2.5 1.7 2.5 2.9 2.5 4 3.4 4.9 4.6 4.9 4.6 4.9 4.7 4.9 4.8 4.9L5.4 6.1C5.6 6.4 5.9 6.6 6.2 6.6 6.3 6.6 6.4 6.5 6.5 6.5 7 6.3 7.1 5.8 6.9 5.4M6.7 8.6L8.3 11.4C8.5 11.7 8.7 11.9 9 11.9 9.2 11.9 9.3 11.8 9.4 11.8 9.8 11.5 10 11.1 9.8 10.7L8.2 7.8C8 7.4 7.5 7.2 7.1 7.4 6.7 7.7 6.5 8.2 6.7 8.6M27.3 26.2L24.5 24.6C24.1 24.4 23.6 24.5 23.3 24.9 23.1 25.3 23.2 25.8 23.6 26L26.5 27.6C26.6 27.7 26.8 27.7 26.9 27.7 27.2 27.7 27.5 27.6 27.7 27.3 27.9 26.9 27.7 26.4 27.3 26.2M4.2 23.8L3.2 24.3C2.9 24.1 2.5 24 2.1 24 0.9 24 0 24.9 0 26.1 0 27.2 0.9 28.2 2.1 28.2 3.3 28.2 4.2 27.2 4.2 26.1 4.2 25.9 4.2 25.8 4.1 25.6L5 25.2C5.4 25 5.5 24.5 5.3 24.1 5.1 23.7 4.6 23.6 4.2 23.8"/></g></g></g></g></g></svg>