<svg xmlns="http://www.w3.org/2000/svg" width="56" height="48" viewBox="0 0 56 48" version="1.1"><title>Fill 10</title><desc>Created with Sketch.</desc><g stroke="none" stroke-width="1" fill="none" fill-rule="evenodd"><g transform="translate(-120.000000, -921.000000)" fill="#FFFFFF"><g transform="translate(0.000000, 897.000000)"><g transform="translate(120.000000, 25.000000)"><path d="M14.3 36.4C15.1 38.2 16.3 39.8 17.8 40.9 20.1 42.7 22.7 43.5 25.2 43.7L25.2 43.7C25.3 43.7 25.3 43.8 25.3 43.8 26.2 44.4 27.1 45.1 28.1 45.5 28.6 45.7 29.1 46 29.7 46.1L30.1 46.2 30.3 46.3 30.5 46.3C30.8 46.4 30.9 46.4 31.2 46.5 32.4 46.7 33.5 46.6 34.6 46.5 37.4 46.1 39.8 44.8 41.7 43.1 41.8 43.1 41.8 43.1 41.8 43.1 42.9 43 44 42.7 45 42.3 45.5 42.1 46 41.9 46.5 41.6L46.9 41.4 47.1 41.3 47.3 41.2C47.5 41 47.6 40.9 47.9 40.7 48.9 40 49.6 39.3 50.2 38.4 52 36.1 52.8 33.4 53 30.8L53 30.8C53 30.8 53 30.8 53.1 30.7 53.7 29.8 54.3 28.9 54.8 27.9 55 27.4 55.2 26.8 55.3 26.3L55.5 25.9 55.5 25.6 55.6 25.4C55.6 25.2 55.6 25 55.7 24.7 55.9 23.5 55.9 22.4 55.7 21.3 55.3 18.4 54.1 16 52.4 14L52.4 14C52.4 14 52.4 13.9 52.4 13.9 52.3 12.8 52 11.7 51.6 10.6 51.4 10.1 51.2 9.6 50.9 9.1L50.7 8.7 50.6 8.5 50.5 8.4C50.4 8.1 50.3 8 50.1 7.7 49.4 6.7 48.6 6 47.8 5.3 45.5 3.6 42.9 2.7 40.4 2.5 39.5 1.8 38.5 1.2 37.5 0.7 35.5-0.2 33.2-0.6 31-0.3 28.2 0.1 25.8 1.4 23.9 3.1 22.8 3.2 21.6 3.5 20.6 3.9 18.5 4.7 16.6 6.1 15.3 7.8 14.8 8.5 14.4 9.3 14 10 7.9 20.9 0.3 23.1 0.3 23.1 0.3 23.1 8.1 25.4 14.3 36.4ZM13.2 32.3C13.2 32.3 13.2 32.3 13.2 32.2 13.2 32.2 13.2 32.2 13.2 32.2 13.2 32.2 13.2 32.3 13.2 32.3ZM52.2 18.9C52.3 19.8 52.4 20.7 52.4 21.5 52.3 22.3 52.2 23.2 52 23.8 52 24 51.9 24.3 51.8 24.5L51.8 24.6C51.8 24.6 51.7 24.7 51.7 24.7L51.6 25C51.5 25.4 51.3 25.7 51.1 26.1 50.7 26.7 50.3 27.4 49.8 28 49.3 28.7 48.8 29.1 48 29.8 45.7 31.9 42.6 33.1 39.4 32.6 36.2 32.2 33 30.2 29.9 27.9 31.6 31.3 34.5 34.6 38.6 35.9 40.7 36.6 43 36.6 45.1 36.1 46.7 35.7 48.1 35 49.4 34.1 48.9 34.9 48.4 35.5 47.7 36.1 47.2 36.6 46.5 37.1 45.9 37.5 45.8 37.6 45.5 37.7 45.3 37.8L45.2 37.9C45.2 37.8 45.1 37.9 45.1 37.9L44.8 38C44.5 38.2 44.1 38.3 43.7 38.4 43 38.6 42.2 38.8 41.4 38.8 40.6 38.9 40 38.9 38.9 38.8 35.8 38.6 32.8 37.2 30.9 34.6 28.9 32 28 28.3 27.5 24.4 26.3 28.1 26 32.4 28 36.4 29 38.4 30.6 40 32.5 41.2 33.9 42.1 35.4 42.6 36.9 42.9L36.9 42.9C36.1 43 35.2 43.1 34.4 43.1 33.6 43 32.7 42.9 32.1 42.7 31.9 42.7 31.7 42.6 31.5 42.5L31.3 42.5C31.4 42.5 31.2 42.4 31.2 42.4L30.9 42.3C30.6 42.2 30.2 42 29.9 41.8 29.2 41.4 28.6 41 28 40.4 27.4 39.9 26.9 39.4 26.3 38.6 24.2 36.2 23 33.1 23.5 29.8 23.9 26.6 25.8 23.3 28.1 20.2 24.7 21.9 21.6 24.8 20.2 29.1 19.5 31.1 19.5 33.5 20 35.7 20.4 37.3 21.1 38.7 22 40.1 21.3 39.5 20.6 39 20.1 38.4 17.9 35.9 17.1 32.8 17.4 29.4 17.6 26.2 19 23.1 21.5 21.1 24.1 19.1 27.7 18.2 31.5 17.7 27.9 16.4 23.7 16.2 19.8 18.2 17.8 19.2 16.2 20.9 15.1 22.8 14.2 24.2 13.7 25.7 13.4 27.3 13.3 26.4 13.2 25.6 13.2 24.7 13.4 21.4 15 18.6 17.6 16.5 20 14.3 23 13.1 26.2 13.6 29.4 14 32.6 16 35.7 18.3 34 14.9 31.1 11.6 27 10.3 24.9 9.6 22.6 9.6 20.5 10.1 18.9 10.5 17.5 11.2 16.2 12.1 16.7 11.4 17.2 10.7 17.9 10.1 20.2 7.9 23.3 7.1 26.6 7.4 29.8 7.6 32.8 9 34.7 11.6 36.7 14.3 37.6 18 38.1 21.8 39.3 18.1 39.6 13.8 37.6 9.8 36.6 7.9 35 6.2 33.1 5 31.7 4.2 30.2 3.6 28.7 3.3L28.7 3.3C29.5 3.2 30.4 3.1 31.2 3.1 34.5 3.3 37.2 4.9 39.3 7.6 41.4 10 42.6 13.1 42.1 16.4 41.7 19.7 39.8 22.9 37.5 26 40.9 24.3 44 21.4 45.4 17.2 46.1 15.1 46.1 12.7 45.6 10.5 45.2 8.9 44.5 7.5 43.6 6.1 44.3 6.7 45 7.2 45.5 7.9 46.1 8.5 46.6 9.2 46.9 9.8 47 9.9 47.1 10.2 47.2 10.3L47.3 10.5C47.2 10.4 47.3 10.6 47.3 10.6L47.4 10.9C47.6 11.2 47.7 11.6 47.8 12 48 12.7 48.2 13.5 48.2 14.3 48.3 15.2 48.3 15.8 48.2 16.8 48 20 46.6 23.1 44.1 25.1 41.5 27.1 37.9 28 34.1 28.6 37.7 29.8 41.9 30 45.8 28 47.8 27 49.4 25.3 50.5 23.4 51.4 22 51.9 20.5 52.2 18.9L52.2 18.9Z"/></g></g></g></g></svg>